<svg width="101" height="49" viewBox="0 0 101 49" fill="none" xmlns="http://www.w3.org/2000/svg">
<path d="M3.67195 10.712C3.25595 10.712 2.90395 10.568 2.61595 10.28C2.34395 9.992 2.20795 9.64 2.20795 9.224C2.20795 8.808 2.34395 8.456 2.61595 8.168C2.90395 7.88 3.25595 7.736 3.67195 7.736C4.08795 7.736 4.43195 7.88 4.70395 8.168C4.99195 8.456 5.13595 8.808 5.13595 9.224C5.13595 9.64 4.99195 9.992 4.70395 10.28C4.43195 10.568 4.08795 10.712 3.67195 10.712ZM4.75195 28.856C4.75195 30.024 4.45595 30.88 3.86395 31.424C3.27195 31.968 2.40795 32.24 1.27195 32.24H-5.07981e-05V30.392H0.911949C1.51995 30.392 1.94395 30.272 2.18395 30.032C2.43995 29.792 2.56795 29.384 2.56795 28.808V12.848H4.75195V28.856ZM7.63307 19.376C7.63307 18.032 7.90507 16.856 8.44907 15.848C8.99307 14.824 9.73707 14.032 10.6811 13.472C11.6411 12.912 12.7051 12.632 13.8731 12.632C15.0251 12.632 16.0251 12.88 16.8731 13.376C17.7211 13.872 18.3531 14.496 18.7691 15.248V12.848H20.9771V26H18.7691V23.552C18.3371 24.32 17.6891 24.96 16.8251 25.472C15.9771 25.968 14.9851 26.216 13.8491 26.216C12.6811 26.216 11.6251 25.928 10.6811 25.352C9.73707 24.776 8.99307 23.968 8.44907 22.928C7.90507 21.888 7.63307 20.704 7.63307 19.376ZM18.7691 19.4C18.7691 18.408 18.5691 17.544 18.1691 16.808C17.7691 16.072 17.2251 15.512 16.5371 15.128C15.8651 14.728 15.1211 14.528 14.3051 14.528C13.4891 14.528 12.7451 14.72 12.0731 15.104C11.4011 15.488 10.8651 16.048 10.4651 16.784C10.0651 17.52 9.86507 18.384 9.86507 19.376C9.86507 20.384 10.0651 21.264 10.4651 22.016C10.8651 22.752 11.4011 23.32 12.0731 23.72C12.7451 24.104 13.4891 24.296 14.3051 24.296C15.1211 24.296 15.8651 24.104 16.5371 23.72C17.2251 23.32 17.7691 22.752 18.1691 22.016C18.5691 21.264 18.7691 20.392 18.7691 19.4ZM23.8518 19.4C23.8518 18.04 24.1238 16.856 24.6678 15.848C25.2118 14.824 25.9638 14.032 26.9238 13.472C27.8998 12.912 29.0118 12.632 30.2598 12.632C31.8758 12.632 33.2038 13.024 34.2438 13.808C35.2998 14.592 35.9958 15.68 36.3318 17.072H33.9798C33.7558 16.272 33.3158 15.64 32.6598 15.176C32.0198 14.712 31.2198 14.48 30.2598 14.48C29.0118 14.48 28.0038 14.912 27.2358 15.776C26.4678 16.624 26.0838 17.832 26.0838 19.4C26.0838 20.984 26.4678 22.208 27.2358 23.072C28.0038 23.936 29.0118 24.368 30.2598 24.368C31.2198 24.368 32.0198 24.144 32.6598 23.696C33.2998 23.248 33.7398 22.608 33.9798 21.776H36.3318C35.9798 23.12 35.2758 24.2 34.2198 25.016C33.1638 25.816 31.8438 26.216 30.2598 26.216C29.0118 26.216 27.8998 25.936 26.9238 25.376C25.9638 24.816 25.2118 24.024 24.6678 23C24.1238 21.976 23.8518 20.776 23.8518 19.4ZM46.5899 26L41.4299 20.192V26H39.2459V8.24H41.4299V18.68L46.4939 12.848H49.542L43.3499 19.4L49.5659 26H46.5899ZM56.2535 26.216C55.2455 26.216 54.3415 26.048 53.5415 25.712C52.7415 25.36 52.1095 24.88 51.6455 24.272C51.1815 23.648 50.9255 22.936 50.8775 22.136H53.1335C53.1975 22.792 53.5015 23.328 54.0455 23.744C54.6055 24.16 55.3335 24.368 56.2295 24.368C57.0615 24.368 57.7175 24.184 58.1975 23.816C58.6775 23.448 58.9175 22.984 58.9175 22.424C58.9175 21.848 58.6615 21.424 58.1495 21.152C57.6375 20.864 56.8455 20.584 55.7735 20.312C54.7975 20.056 53.9975 19.8 53.3735 19.544C52.7655 19.272 52.2375 18.88 51.7895 18.368C51.3575 17.84 51.1415 17.152 51.1415 16.304C51.1415 15.632 51.3415 15.016 51.7415 14.456C52.1415 13.896 52.7095 13.456 53.4455 13.136C54.1815 12.8 55.0215 12.632 55.9655 12.632C57.4215 12.632 58.5975 13 59.4935 13.736C60.3895 14.472 60.8695 15.48 60.9335 16.76H58.7495C58.7015 16.072 58.4215 15.52 57.9095 15.104C57.4135 14.688 56.7415 14.48 55.8935 14.48C55.1095 14.48 54.4855 14.648 54.0215 14.984C53.5575 15.32 53.3255 15.76 53.3255 16.304C53.3255 16.736 53.4615 17.096 53.7335 17.384C54.0215 17.656 54.3735 17.88 54.7895 18.056C55.2215 18.216 55.8135 18.4 56.5655 18.608C57.5095 18.864 58.2775 19.12 58.8695 19.376C59.4615 19.616 59.9655 19.984 60.3815 20.48C60.8135 20.976 61.0375 21.624 61.0535 22.424C61.0535 23.144 60.8535 23.792 60.4535 24.368C60.0535 24.944 59.4855 25.4 58.7495 25.736C58.0295 26.056 57.1975 26.216 56.2535 26.216ZM69.8726 26.216C68.6406 26.216 67.5206 25.936 66.5126 25.376C65.5206 24.816 64.7366 24.024 64.1606 23C63.6006 21.96 63.3206 20.76 63.3206 19.4C63.3206 18.056 63.6086 16.872 64.1846 15.848C64.7766 14.808 65.5766 14.016 66.5846 13.472C67.5926 12.912 68.7206 12.632 69.9686 12.632C71.2166 12.632 72.3446 12.912 73.3526 13.472C74.3606 14.016 75.1526 14.8 75.7286 15.824C76.3206 16.848 76.6166 18.04 76.6166 19.4C76.6166 20.76 76.3126 21.96 75.7046 23C75.1126 24.024 74.3046 24.816 73.2806 25.376C72.2566 25.936 71.1206 26.216 69.8726 26.216ZM69.8726 24.296C70.6566 24.296 71.3926 24.112 72.0806 23.744C72.7686 23.376 73.3206 22.824 73.7366 22.088C74.1686 21.352 74.3846 20.456 74.3846 19.4C74.3846 18.344 74.1766 17.448 73.7606 16.712C73.3446 15.976 72.8006 15.432 72.1286 15.08C71.4566 14.712 70.7286 14.528 69.9446 14.528C69.1446 14.528 68.4086 14.712 67.7366 15.08C67.0806 15.432 66.5526 15.976 66.1526 16.712C65.7526 17.448 65.5526 18.344 65.5526 19.4C65.5526 20.472 65.7446 21.376 66.1286 22.112C66.5286 22.848 67.0566 23.4 67.7126 23.768C68.3686 24.12 69.0886 24.296 69.8726 24.296ZM85.8961 12.608C87.4961 12.608 88.7921 13.096 89.7841 14.072C90.7761 15.032 91.2721 16.424 91.2721 18.248V26H89.1121V18.56C89.1121 17.248 88.7841 16.248 88.1281 15.56C87.4721 14.856 86.5761 14.504 85.4401 14.504C84.2881 14.504 83.3681 14.864 82.6801 15.584C82.0081 16.304 81.6721 17.352 81.6721 18.728V26H79.4881V12.848H81.6721V14.72C82.1041 14.048 82.6881 13.528 83.4241 13.16C84.1761 12.792 85.0001 12.608 85.8961 12.608Z" fill="white"/>
<path d="M33.2572 41.24C33.2572 42.7333 32.8372 43.92 31.9972 44.8C31.2105 45.6 30.2505 46 29.1172 46C27.9838 46 27.1105 45.7333 26.4972 45.2V47.2C26.4972 47.5467 26.5905 47.8 26.7772 47.96C27.0038 48.1333 27.3372 48.22 27.7772 48.22V48.88H23.9772V48.22C24.5105 48.22 24.8705 48.1333 25.0572 47.96C25.1905 47.8267 25.2572 47.5733 25.2572 47.2V38.58C25.2572 38.5133 25.2438 38.4133 25.2172 38.28C25.2038 38.1733 25.1638 38.0867 25.0972 38.02C24.9638 37.8867 24.6172 37.82 24.0572 37.82C24.0438 37.7533 24.0305 37.68 24.0172 37.6C24.0172 37.52 24.0105 37.4467 23.9972 37.38C24.4238 37.2333 24.8438 37.0867 25.2572 36.94C25.6705 36.78 26.0838 36.6267 26.4972 36.48V37.28C27.1905 36.7467 28.0838 36.48 29.1772 36.48C30.3638 36.48 31.3305 36.8933 32.0772 37.72C32.8638 38.6267 33.2572 39.8 33.2572 41.24ZM31.9172 41.26C31.9172 40.1 31.6172 39.16 31.0172 38.44C30.4305 37.6933 29.6705 37.32 28.7372 37.32C27.8038 37.32 27.0572 37.62 26.4972 38.22V44.2C27.0572 44.84 27.8038 45.16 28.7372 45.16C29.6172 45.16 30.3572 44.8 30.9572 44.08C31.5972 43.32 31.9172 42.38 31.9172 41.26ZM43.1525 41.32C43.1525 42.8133 42.7258 44.0067 41.8725 44.9C41.0591 45.7933 40.0191 46.24 38.7525 46.24C37.4725 46.24 36.4258 45.7933 35.6125 44.9C34.7591 44.0067 34.3325 42.8133 34.3325 41.32C34.3325 39.8267 34.7591 38.6333 35.6125 37.74C36.4258 36.8467 37.4725 36.4 38.7525 36.4C40.0191 36.4 41.0591 36.8467 41.8725 37.74C42.7258 38.6333 43.1525 39.8267 43.1525 41.32ZM41.7925 41.32C41.7925 40.0933 41.4991 39.0867 40.9125 38.3C40.3658 37.5133 39.6458 37.12 38.7525 37.12C37.8725 37.12 37.1391 37.5133 36.5525 38.3C35.9791 39.0867 35.6925 40.0933 35.6925 41.32C35.6925 42.5333 35.9725 43.54 36.5325 44.34C37.1058 45.1133 37.8458 45.5 38.7525 45.5C39.6191 45.5 40.3391 45.1133 40.9125 44.34C41.4991 43.5533 41.7925 42.5467 41.7925 41.32ZM51.6548 37.32C51.6548 38.0133 51.3482 38.36 50.7348 38.36C50.4815 38.36 50.2015 38.2467 49.8948 38.02C49.6682 37.8333 49.4215 37.74 49.1548 37.74C48.8082 37.74 48.3748 37.94 47.8548 38.34C47.4415 38.66 47.0415 39.0267 46.6548 39.44V44.28C46.6548 44.6533 46.7215 44.9 46.8548 45.02C47.0015 45.1533 47.3682 45.22 47.9548 45.22V45.86H44.1548V45.22C44.5015 45.22 44.7682 45.1933 44.9548 45.14C45.1415 45.0867 45.2682 45.0067 45.3348 44.9C45.4015 44.7933 45.4348 44.6267 45.4348 44.4V38.56C45.4348 38.2933 45.3882 38.1133 45.2948 38.02C45.2415 37.9667 45.1282 37.9067 44.9548 37.84C44.7682 37.8 44.5415 37.78 44.2748 37.78C44.2482 37.7133 44.2282 37.6467 44.2148 37.58C44.2015 37.5133 44.1815 37.4467 44.1548 37.38C44.5815 37.2067 45.0015 37.04 45.4148 36.88C45.8282 36.7067 46.2415 36.5333 46.6548 36.36V38.42C46.9748 38.1133 47.2948 37.8333 47.6148 37.58C47.9348 37.3267 48.2482 37.1133 48.5548 36.94C49.2215 36.5533 49.8682 36.36 50.4948 36.36C51.2682 36.36 51.6548 36.68 51.6548 37.32ZM58.0956 43.9C58.1623 43.9533 58.2223 44 58.2756 44.04C58.3423 44.08 58.4089 44.12 58.4756 44.16C58.2356 44.72 57.9089 45.1867 57.4956 45.56C57.0289 46 56.5223 46.22 55.9756 46.22C55.2556 46.22 54.7089 45.96 54.3356 45.44C54.2289 45.2533 54.1423 45.04 54.0756 44.8C54.0089 44.56 53.9756 44.2933 53.9756 44V37.38H52.4156V36.74C53.1356 36.74 53.6689 36.4667 54.0156 35.92C54.4023 35.2933 54.5956 34.4 54.5956 33.24H55.1956V36.6H57.8156V37.38H55.1956V44.14C55.1956 44.8467 55.5689 45.2 56.3156 45.2C56.9156 45.2 57.5089 44.7667 58.0956 43.9ZM62.4711 32.64C62.4711 32.96 62.3644 33.2267 62.1511 33.44C61.9377 33.6533 61.6711 33.76 61.3511 33.76C61.0577 33.76 60.8111 33.6533 60.6111 33.44C60.4244 33.2267 60.3311 32.96 60.3311 32.64C60.3311 32.32 60.4311 32.0533 60.6311 31.84C60.8311 31.6267 61.0711 31.52 61.3511 31.52C61.6711 31.52 61.9377 31.6267 62.1511 31.84C62.3644 32.0533 62.4711 32.32 62.4711 32.64ZM63.4111 45.88H59.6711V45.22C60.2177 45.22 60.5711 45.14 60.7311 44.98C60.8644 44.86 60.9311 44.64 60.9311 44.32V38.56C60.9311 38.2667 60.8711 38.0667 60.7511 37.96C60.6044 37.84 60.2511 37.78 59.6911 37.78L59.6111 37.34L62.1511 36.38V44.32C62.1511 44.6933 62.2111 44.9267 62.3311 45.02C62.5044 45.1533 62.8644 45.22 63.4111 45.22V45.88ZM69.7101 33.38C69.4168 33.38 69.1368 33.2867 68.8701 33.1C68.6835 32.9667 68.5435 32.8933 68.4501 32.88C68.3568 32.8533 68.2568 32.84 68.1501 32.84C67.8968 32.84 67.6768 33.0933 67.4901 33.6C67.4235 33.7733 67.3835 33.9533 67.3701 34.14C67.3568 34.3267 67.3501 34.5267 67.3501 34.74V36.76H69.5301V37.52H67.3501V44.16C67.3501 44.68 67.5568 45 67.9701 45.12C68.2368 45.1867 68.6835 45.22 69.3101 45.22V45.86H64.4701V45.22C64.8168 45.22 65.0968 45.2 65.3101 45.16C65.5235 45.12 65.6901 45.0667 65.8101 45C65.9301 44.9333 66.0101 44.8333 66.0501 44.7C66.0901 44.5533 66.1101 44.3733 66.1101 44.16V37.52H64.4901V36.76H66.1101V35.52C66.1101 34.48 66.3835 33.5867 66.9301 32.84C67.5435 32 68.3235 31.58 69.2701 31.58C69.6168 31.58 69.9035 31.66 70.1301 31.82C70.3835 31.9933 70.5101 32.2467 70.5101 32.58C70.5101 32.8067 70.4235 33 70.2501 33.16C70.0768 33.3067 69.8968 33.38 69.7101 33.38ZM80.0665 41.32C80.0665 42.8133 79.6399 44.0067 78.7865 44.9C77.9732 45.7933 76.9332 46.24 75.6665 46.24C74.3865 46.24 73.3399 45.7933 72.5265 44.9C71.6732 44.0067 71.2465 42.8133 71.2465 41.32C71.2465 39.8267 71.6732 38.6333 72.5265 37.74C73.3399 36.8467 74.3865 36.4 75.6665 36.4C76.9332 36.4 77.9732 36.8467 78.7865 37.74C79.6399 38.6333 80.0665 39.8267 80.0665 41.32ZM78.7065 41.32C78.7065 40.0933 78.4132 39.0867 77.8265 38.3C77.2799 37.5133 76.5599 37.12 75.6665 37.12C74.7865 37.12 74.0532 37.5133 73.4665 38.3C72.8932 39.0867 72.6065 40.0933 72.6065 41.32C72.6065 42.5333 72.8865 43.54 73.4465 44.34C74.0199 45.1133 74.7599 45.5 75.6665 45.5C76.5332 45.5 77.2532 45.1133 77.8265 44.34C78.4132 43.5533 78.7065 42.5467 78.7065 41.32ZM85.1289 45.86H81.2889V45.22C81.8089 45.22 82.1622 45.1467 82.3489 45C82.5089 44.8667 82.5889 44.58 82.5889 44.14V33.72C82.5889 33.4933 82.5089 33.3333 82.3489 33.24C82.1889 33.1333 81.8489 33.08 81.3289 33.08L81.2089 32.6C81.6356 32.44 82.0689 32.2867 82.5089 32.14C82.9489 31.98 83.3822 31.82 83.8089 31.66V44.14C83.8089 44.5533 83.8822 44.8333 84.0289 44.98C84.1356 45.0467 84.2756 45.1 84.4489 45.14C84.6356 45.1933 84.8622 45.22 85.1289 45.22V45.86ZM89.3265 32.64C89.3265 32.96 89.2199 33.2267 89.0065 33.44C88.7932 33.6533 88.5265 33.76 88.2065 33.76C87.9132 33.76 87.6665 33.6533 87.4665 33.44C87.2799 33.2267 87.1865 32.96 87.1865 32.64C87.1865 32.32 87.2865 32.0533 87.4865 31.84C87.6865 31.6267 87.9265 31.52 88.2065 31.52C88.5265 31.52 88.7932 31.6267 89.0065 31.84C89.2199 32.0533 89.3265 32.32 89.3265 32.64ZM90.2665 45.88H86.5265V45.22C87.0732 45.22 87.4265 45.14 87.5865 44.98C87.7199 44.86 87.7865 44.64 87.7865 44.32V38.56C87.7865 38.2667 87.7265 38.0667 87.6065 37.96C87.4599 37.84 87.1065 37.78 86.5465 37.78L86.4665 37.34L89.0065 36.38V44.32C89.0065 44.6933 89.0665 44.9267 89.1865 45.02C89.3599 45.1533 89.7199 45.22 90.2665 45.22V45.88ZM100.106 41.32C100.106 42.8133 99.6789 44.0067 98.8256 44.9C98.0123 45.7933 96.9723 46.24 95.7056 46.24C94.4256 46.24 93.3789 45.7933 92.5656 44.9C91.7123 44.0067 91.2856 42.8133 91.2856 41.32C91.2856 39.8267 91.7123 38.6333 92.5656 37.74C93.3789 36.8467 94.4256 36.4 95.7056 36.4C96.9723 36.4 98.0123 36.8467 98.8256 37.74C99.6789 38.6333 100.106 39.8267 100.106 41.32ZM98.7456 41.32C98.7456 40.0933 98.4523 39.0867 97.8656 38.3C97.3189 37.5133 96.5989 37.12 95.7056 37.12C94.8256 37.12 94.0923 37.5133 93.5056 38.3C92.9323 39.0867 92.6456 40.0933 92.6456 41.32C92.6456 42.5333 92.9256 43.54 93.4856 44.34C94.0589 45.1133 94.7989 45.5 95.7056 45.5C96.5723 45.5 97.2923 45.1133 97.8656 44.34C98.4523 43.5533 98.7456 42.5467 98.7456 41.32Z" fill="white"/>
</svg>
